<svg width="75" height="75" viewBox="0 0 75 75" fill="none" xmlns="http://www.w3.org/2000/svg">
<path d="M23.8193 74.5C24.0653 74.5 24.4097 74.4296 24.7744 74.2949C25.0455 74.1948 25.3051 74.0671 25.5215 73.9297L25.7227 73.79V73.7891C26.6814 73.0468 27.1437 72.0219 27.3242 69.4883L27.3564 68.9619C27.3724 68.6057 27.3991 68.2764 27.4277 68.0322C27.4419 67.9116 27.4576 67.8022 27.4746 67.7178C27.4825 67.6787 27.4943 67.627 27.5117 67.5771C27.5193 67.5555 27.5375 67.5059 27.5713 67.4531C27.5881 67.4268 27.6223 67.3786 27.6787 67.332C27.7365 67.2844 27.8463 67.216 28 67.2158C28.0733 67.2158 28.136 67.2322 28.1484 67.2354C28.1749 67.2421 28.2018 67.2504 28.2246 67.2578C28.271 67.273 28.3249 67.2932 28.3818 67.3154C28.4972 67.3604 28.6424 67.4216 28.791 67.4912L28.79 67.4922C29.5554 67.8338 31.5191 68.5234 32.8477 68.9199L33.375 69.0703C39.3483 70.6871 45.8105 70.4563 51.667 68.4268L52.2314 68.2256V68.2246C55.8385 66.898 58.7149 65.2745 61.6523 62.8945L62.2402 62.4082C68.6901 56.9529 72.9076 49.1191 74.2031 40.2002L74.3193 39.333L74.3203 39.332C74.4248 38.4986 74.4865 36.9935 74.498 35.4824C74.5082 34.1587 74.4791 32.8669 74.4121 32.0518L74.3809 31.7334C73.6588 25.6931 71.8863 20.5656 68.8809 15.8574L68.5869 15.4033L68.5859 15.4023C67.1192 13.1656 65.0216 10.7244 62.9639 8.84863L62.5527 8.48145V8.48047C61.4289 7.49259 59.3807 6.01035 57.7705 5.01758L57.1113 4.625L57.1094 4.62402C53.6751 2.64033 49.3114 1.19713 45.2217 0.680664L44.4072 0.589844C43.1098 0.462738 39.6132 0.473255 38.3115 0.600586H38.3125C34.679 0.971234 30.7055 2.1523 27.2402 3.89551L26.5537 4.25195H26.5527C26.1452 4.46926 25.7693 4.67021 25.4912 4.81934C25.3522 4.8939 25.238 4.95518 25.1572 4.99902C25.117 5.02086 25.0858 5.03794 25.0645 5.0498C25.0589 5.05288 25.0541 5.05573 25.0508 5.05762L25.0107 5.08594L24.9453 5.1084L24.8809 5.12695C24.7356 5.15731 24.6208 5.11369 24.5918 5.10254C24.5398 5.08251 24.5011 5.05806 24.4814 5.04492C24.4398 5.01705 24.4048 4.98614 24.3828 4.96582C24.3352 4.92169 24.2837 4.86614 24.2334 4.80859C24.1314 4.69196 24.0058 4.53371 23.8799 4.35547C23.7159 4.13023 23.2956 3.63131 22.8398 3.12207L22.3809 2.61914L22.3799 2.61816C21.5767 1.7526 21.322 1.55128 21.1455 1.47949L21.0732 1.45508L21.0674 1.45312C20.836 1.38543 20.7145 1.39174 20.6445 1.41113C20.5979 1.42414 20.5389 1.45237 20.4629 1.52832L20.3809 1.62109L20.2314 1.81055V35.165C20.2314 47.635 20.2235 56.07 20.2041 61.458C20.1944 64.1518 20.182 66.0858 20.166 67.3818C20.158 68.0295 20.1495 68.5199 20.1396 68.8672C20.135 69.031 20.1302 69.173 20.124 69.2881L20.1016 69.5469C19.8354 71.3076 20.564 73.0762 21.7031 73.8418L21.9365 73.9814L21.9395 73.9834C22.1899 74.1176 22.5438 74.2494 22.9072 74.3477C23.2746 74.447 23.6085 74.5 23.8193 74.5ZM25.3916 72.4893C24.8872 73.0982 24.1018 73.2904 23.3936 73.1846C22.6837 73.0784 21.9739 72.6666 21.5693 71.9727L21.4932 71.8301C21.4601 71.7634 21.4462 71.6995 21.4404 71.6719C21.4328 71.6354 21.4272 71.5975 21.4229 71.5615C21.414 71.489 21.4059 71.3968 21.3994 71.2852C21.3864 71.0602 21.3759 70.727 21.3662 70.2529C21.3468 69.3028 21.3326 67.765 21.3223 65.3496C21.3016 60.5171 21.2959 52.1577 21.2959 37.9268C21.2959 28.7506 21.3038 20.4061 21.3154 14.3555C21.3212 11.3304 21.3287 8.87851 21.3359 7.18262C21.3396 6.33496 21.3429 5.67531 21.3467 5.22754C21.3486 5.00388 21.3506 4.83152 21.3525 4.71484C21.3535 4.65703 21.3544 4.6104 21.3555 4.57715C21.356 4.56156 21.3564 4.54401 21.3574 4.52832C21.3578 4.5222 21.3589 4.50582 21.3613 4.4873C21.3621 4.48115 21.3656 4.45482 21.374 4.42285C21.3796 4.4033 21.4 4.34966 21.416 4.31641C21.4603 4.24737 21.6735 4.08528 21.8584 4.0498C21.9952 4.04986 22.0942 4.10524 22.124 4.12207C22.1671 4.1464 22.2021 4.1729 22.2246 4.19141C22.2705 4.22921 22.3142 4.2736 22.3516 4.31348C22.4288 4.39596 22.5211 4.50615 22.6201 4.63086C22.8203 4.88308 23.0745 5.22647 23.3408 5.60156C23.7393 6.16282 24.1772 6.81158 24.5176 7.35449L24.8203 7.85547L24.8223 7.85742C24.9528 8.08646 25.1035 8.32019 25.2383 8.51074C25.3056 8.6059 25.3663 8.68794 25.417 8.75098C25.4422 8.78236 25.4636 8.80728 25.4805 8.82617C25.4899 8.83675 25.4967 8.84425 25.501 8.84863C25.6714 8.98384 25.8867 8.98497 26.0879 8.7832C26.2128 8.64706 26.2518 8.53747 26.25 8.4043C26.2477 8.23893 26.1817 7.98995 25.9775 7.5957L25.9727 7.58789L25.9697 7.58008C25.8716 7.37332 25.791 7.17826 25.7412 7.01758C25.7171 6.93983 25.6939 6.85064 25.6846 6.7627C25.68 6.71916 25.6763 6.65622 25.6865 6.58594C25.6935 6.53826 25.711 6.45455 25.7646 6.36816L25.8311 6.28223L25.8369 6.27637C25.9247 6.18687 26.0518 6.10036 26.166 6.02832C26.2925 5.94857 26.4491 5.85828 26.626 5.76172C26.9805 5.56813 27.435 5.3389 27.9307 5.10156C28.6732 4.746 29.5213 4.36638 30.2852 4.05371L31.0146 3.7666H31.0156C34.9245 2.30589 39.3846 1.67638 43.6162 1.99707L43.6152 1.99805C50.9948 2.54408 57.7169 5.59962 63.0303 10.8105L63.54 11.3223C68.6215 16.5305 71.8064 23.0202 72.8848 30.3516C73.1518 32.1534 73.2598 35.8552 73.125 37.9805L73.0947 38.3838V38.3848L73.0342 38.9922C72.3821 45.0487 70.1985 50.7624 66.6465 55.6768L66.2861 56.165V56.166L66.0547 56.4639C64.8148 58.0219 62.3512 60.5787 61.0781 61.5947H61.0771C56.2102 65.4855 51.172 67.6877 45.2461 68.4941H45.2471C44.3973 68.613 42.9943 68.675 41.6289 68.6846C40.435 68.6929 39.2329 68.6607 38.4189 68.584L38.0947 68.5488H38.0938C34.9145 68.1354 32.2516 67.4197 29.4434 66.2129L28.8789 65.9648L28.8779 65.9639L27.6289 65.3994L27.3506 65.2734L27.3359 64.9678L27.2227 62.6309C27.0934 60.0554 26.974 56.8745 26.9004 54.2979C26.8636 53.0096 26.838 51.8703 26.8281 51.0322C26.8232 50.6137 26.8226 50.2672 26.8262 50.0137C26.8279 49.8876 26.8304 49.7801 26.835 49.6963C26.8372 49.6547 26.8407 49.6137 26.8447 49.5771C26.8474 49.5531 26.8536 49.4933 26.873 49.4316V49.4307C26.943 49.2095 27.1241 49.1193 27.1797 49.0938C27.2553 49.059 27.333 49.0407 27.3916 49.0293C27.5136 49.0057 27.6738 48.9909 27.8652 48.9805C28.2549 48.9593 28.8637 48.9512 29.7656 48.9512C30.5992 48.9512 31.1819 48.9555 31.6094 48.9229C32.0515 48.8891 32.2072 48.8202 32.2705 48.7686C32.3091 48.737 32.3762 48.6606 32.4131 48.335C32.4506 48.0038 32.4453 47.5489 32.4453 46.8633C32.4453 45.0414 32.3014 41.4675 32.1367 38.9404C32.1055 38.5022 32.0612 37.7491 32.0146 36.8896L31.8779 34.2002V34.1992C31.3934 23.9059 30.8692 20.2082 29.2178 15.0869C28.8179 13.8506 28.4522 12.8657 28.1357 12.1543C27.9773 11.7982 27.8349 11.5189 27.7109 11.3145C27.5885 11.1126 27.5043 11.0211 27.4668 10.9893C27.4106 10.9558 27.3008 10.9218 27.1553 10.9277C27.0019 10.9341 26.8871 10.9806 26.832 11.0244C26.753 11.0917 26.7168 11.1415 26.6982 11.1777C26.6815 11.2106 26.6673 11.2547 26.668 11.3311C26.6692 11.4677 26.7151 11.6703 26.8398 11.9941L26.9922 12.3604L26.9932 12.3643C27.9472 14.5706 28.8322 17.4439 29.4033 20.2119L29.5137 20.7637C30.1195 23.921 30.4818 27.8862 30.7607 34.207C30.8226 35.5528 30.9155 37.277 30.9668 38.0557C31.1386 40.5894 31.2562 43.4842 31.2617 45.1377L31.2568 45.7656L31.2256 47.2324L31.2158 47.7197L30.7275 47.7227L28.2812 47.7334H28.2822C27.2131 47.7389 26.6122 47.7467 26.249 47.7725C26.0664 47.7854 25.9664 47.8019 25.9121 47.8154L25.8477 47.8408L25.8447 47.8428L25.8018 47.8789C25.7838 47.896 25.7628 47.9179 25.7412 47.9443C25.723 47.9666 25.708 47.9886 25.6963 48.0068C25.696 48.0103 25.6956 48.0146 25.6953 48.0186C25.6914 48.0738 25.6883 48.1529 25.6855 48.2568C25.68 48.4646 25.6769 48.7539 25.6777 49.1123C25.6793 49.8283 25.6943 50.8077 25.7188 51.9355C25.7555 53.6268 25.8151 55.6479 25.8906 57.6104L25.9707 59.5391C26.0742 61.7838 26.167 65.1728 26.167 67.0635C26.167 69.6633 26.1559 70.4345 26.0254 71.0234L25.9619 71.2695L25.9609 71.2715L25.8623 71.5664C25.7514 71.8681 25.6099 72.1772 25.498 72.3486L25.4883 72.3623L25.3916 72.4893Z" fill="white" stroke="white"/>
<path d="M32.8159 61.9639C40.5158 64.7213 48.8119 63.6966 55.6597 59.168L56.3179 58.7188C60.0136 56.1173 62.9265 52.7277 65.0161 48.6055L65.4233 47.7715C69.052 40.0247 69.1372 31.2364 65.687 23.4336L65.3423 22.6816H65.3413C61.5772 14.7325 54.5252 9.19833 46.1694 7.58008L45.356 7.43555C44.5883 7.31037 43.3415 7.21889 42.0991 7.17969C41.0096 7.14531 39.958 7.15208 39.2642 7.20605L38.9897 7.23242H38.9878C36.7573 7.48236 34.2262 8.11826 32.1587 8.91699L31.7515 9.0791C31.0417 9.37055 30.4829 9.61825 30.0532 9.83789C29.6182 10.0603 29.3422 10.2405 29.1792 10.3887C29.1003 10.4604 29.0598 10.5146 29.0396 10.5498C29.0217 10.5811 29.0202 10.5964 29.02 10.6006C29.0196 10.6096 29.0207 10.681 29.1548 10.8486L29.1538 10.8496C29.2574 10.9783 29.3152 11.0251 29.3481 11.0449C29.363 11.0538 29.3808 11.0636 29.4419 11.0596C29.5219 11.0542 29.6529 11.0252 29.8765 10.9414C29.9862 10.9003 30.1106 10.8494 30.2534 10.7871L30.7427 10.5654C34.2854 8.90507 37.5558 8.17284 41.4048 8.15039V8.14941L41.4067 8.15039L41.4077 8.14941V8.15039C42.1617 8.14224 43.1106 8.17611 43.811 8.22754L44.4136 8.2832C56.1774 9.73628 65.4667 19.3244 67.0767 31.4854L67.147 32.0664C67.3221 33.6582 67.3438 36.0416 67.2124 37.8242L67.147 38.5479C66.1595 47.4664 60.8643 55.4382 53.2847 59.5186L52.5435 59.9014L52.5425 59.9023L51.8823 60.2158C48.5741 61.7347 45.1673 62.4863 41.5132 62.4863C38.0384 62.4863 35.4043 61.9758 32.0142 60.6113L31.3257 60.3271L31.3247 60.3262C30.6347 60.0322 30.2865 59.9182 30.0825 59.8994C29.9993 59.8918 29.9729 59.9047 29.9673 59.9072C29.9568 59.9119 29.9272 59.9282 29.8667 59.9971C29.8612 60.0066 29.8473 60.0345 29.8335 60.0879C29.8161 60.1553 29.8053 60.2398 29.8062 60.3301C29.8071 60.4208 29.8196 60.5033 29.8374 60.5654C29.8489 60.6057 29.8588 60.6266 29.8628 60.6338C29.8715 60.6406 29.8904 60.6537 29.9224 60.6748C29.9755 60.7098 30.0484 60.7537 30.1411 60.8047C30.3265 60.9066 30.5727 61.0284 30.8589 61.1602C31.4304 61.4232 32.1428 61.7174 32.8169 61.9629L32.8159 61.9639Z" fill="white" stroke="white"/>
<path d="M48.3789 38.4053C52.7065 38.4053 54.7066 38.416 55.6777 38.3418C55.9162 38.3236 56.073 38.302 56.1777 38.2783C56.2451 38.2631 56.2805 38.2493 56.2959 38.2422L56.2969 38.2402C56.3047 38.2259 56.3151 38.2064 56.332 38.1689C56.3466 38.1368 56.3675 38.0897 56.3916 38.04V38.0391C56.4364 37.9448 56.498 37.6727 56.498 37.4814C56.498 37.3285 56.4842 37.2795 56.4717 37.25C56.4561 37.2134 56.4188 37.1515 56.2852 37.0107L56.082 36.7969H49.2666C47.3307 36.7969 45.5695 36.7935 44.291 36.7881C43.652 36.7854 43.1324 36.7824 42.7715 36.7783C42.5917 36.7763 42.4493 36.7739 42.3506 36.7715C42.3021 36.7703 42.26 36.7692 42.2285 36.7676C42.214 36.7668 42.1941 36.7656 42.1748 36.7637C42.1671 36.7629 42.1458 36.7607 42.1211 36.7559C42.1105 36.7538 42.0813 36.7472 42.0459 36.7344C42.0329 36.7297 42.0103 36.7198 41.9824 36.7051V36.7061C41.9784 36.7039 41.9746 36.7014 41.9707 36.6992C41.9649 36.6959 41.9582 36.6932 41.9521 36.6895C41.9455 36.6853 41.9367 36.6775 41.9248 36.6689C41.9081 36.6569 41.8925 36.6452 41.8789 36.6328C41.8698 36.6245 41.8611 36.6147 41.8516 36.6045C41.8441 36.5965 41.8363 36.5896 41.8301 36.582C41.8161 36.5651 41.8031 36.5457 41.79 36.5244C41.785 36.5162 41.7806 36.51 41.7783 36.5059C41.7765 36.5026 41.7751 36.4993 41.7734 36.4961C41.7704 36.4902 41.7666 36.4847 41.7637 36.4785L41.7656 36.4775C41.7529 36.4508 41.744 36.4296 41.7402 36.418C41.7296 36.3853 41.7243 36.3588 41.7227 36.3496C41.7186 36.3273 41.7165 36.3082 41.7158 36.3008C41.7141 36.2825 41.7127 36.2631 41.7119 36.248C41.7102 36.2156 41.7095 36.1719 41.708 36.1201C41.705 36.0149 41.7014 35.862 41.6982 35.6689C41.6919 35.2821 41.6848 34.725 41.6777 34.04L41.6328 28.7119V28.7109L41.582 21.3828L41.4014 21.2148L41.3984 21.2119C41.1849 21.0114 40.8068 20.9606 40.5127 21.1289H40.5137C40.3629 21.2155 40.3954 21.202 40.3926 21.21C40.3576 21.2861 40.306 21.4882 40.2715 22.0498C40.2043 23.1415 40.207 25.2928 40.207 29.7188C40.207 31.9575 40.2143 34.0303 40.2285 35.5625C40.2356 36.3286 40.2448 36.958 40.2549 37.4053C40.2599 37.6294 40.265 37.8056 40.2705 37.9287C40.2731 37.9871 40.2751 38.0303 40.2773 38.0596C40.2779 38.0607 40.2796 38.0613 40.2803 38.0625C40.2908 38.0812 40.3074 38.1068 40.3301 38.1348C40.3539 38.1642 40.3796 38.1911 40.4043 38.2139L40.4736 38.2676V38.2686C40.4964 38.2833 40.5066 38.2966 40.623 38.3154C40.7729 38.3396 41.041 38.3607 41.5674 38.375C42.6104 38.4033 44.5657 38.4053 48.3789 38.4053Z" fill="white" stroke="white"/>
<path d="M6.75293 73.9568C7.96573 74.568 9.16877 74.6044 10.1436 74.2126C11.0549 73.8463 11.8073 73.0891 12.2002 71.9841L12.2744 71.7585C12.4908 71.0351 12.6009 69.7315 12.5137 68.864C12.4777 68.5402 12.448 68.3709 12.4131 68.2605C12.3862 68.1756 12.3566 68.1261 12.292 68.0544C12.1715 67.9238 12.0742 67.8758 12.0029 67.8591C11.9514 67.8472 11.8855 67.8451 11.7969 67.8699L11.7002 67.9041C11.6121 67.9442 11.5824 67.9689 11.5693 67.9822C11.5607 67.9911 11.5378 68.0159 11.5127 68.0994C11.4666 68.2523 11.4381 68.4994 11.4199 68.9421L11.4053 69.4548C11.3948 70.2725 11.349 70.8796 11.2129 71.365C11.0866 71.8152 10.8865 72.1481 10.6035 72.45L10.4775 72.5769L10.4766 72.5779L10.2656 72.7615C10.0484 72.9302 9.81123 73.0542 9.53613 73.1287C9.26913 73.2009 8.98598 73.2212 8.67871 73.2068L8.36328 73.1814H8.36035C7.54142 73.0881 6.77639 72.6897 6.40918 72.0359L6.3418 71.9031C6.09128 71.3551 5.9846 70.4353 5.95898 69.0583C5.93937 68.0037 5.96745 66.6309 6.04199 64.863L6.13184 62.9607C6.18331 61.8867 6.29737 58.9349 6.37988 56.3933C6.44188 54.4836 6.54967 51.6254 6.65234 49.2048L6.75098 46.9812C6.87975 44.0243 6.97276 40.6788 7.0127 37.9958C7.03267 36.6538 7.03974 35.4794 7.03125 34.6042C7.027 34.1664 7.01866 33.8068 7.00684 33.5398C7.00091 33.406 6.99452 33.2991 6.9873 33.2195C6.97922 33.1303 6.97292 33.1028 6.97461 33.1091L7.45703 32.9802L6.97363 33.1091L6.97266 33.1042C6.92148 32.9041 6.79974 32.6663 6.625 32.4431C6.49408 32.2759 6.34699 32.1336 6.20312 32.03L6.06055 31.9402C5.85939 31.8324 5.60469 31.6217 5.35645 31.3962C5.09163 31.1557 4.79111 30.8584 4.49414 30.5457C3.91018 29.9307 3.30337 29.2181 3.00098 28.739C2.4341 27.8587 2.06169 26.9517 1.8252 25.9138L1.73145 25.4607L1.73047 25.4539C1.59014 24.628 1.55854 23.9952 1.65137 22.1726L1.78613 19.9021L2.0957 14.2V14.198C2.2192 12.0195 2.37432 9.4905 2.45801 8.58472V8.58374C2.57624 7.22491 2.67697 5.76841 2.7373 4.60034C2.76748 4.01611 2.78748 3.50708 2.79492 3.11987C2.79865 2.92593 2.79861 2.76584 2.7959 2.64429C2.79454 2.58356 2.79257 2.53508 2.79004 2.49878C2.7879 2.46819 2.78563 2.45345 2.78516 2.44995L2.78418 2.44214L2.7832 2.4353C2.76259 2.31065 2.68396 2.1662 2.5625 2.05151C2.43719 1.93327 2.32176 1.89722 2.26465 1.89722C2.24558 1.89721 2.17188 1.89521 1.9873 2.0896C1.95926 2.11913 1.93394 2.14497 1.91309 2.16577C1.8907 2.1881 1.8762 2.20117 1.86328 2.2146C1.85141 2.22694 1.84519 2.23387 1.8418 2.23804C1.83888 2.24162 1.83894 2.24378 1.83887 2.2439C1.83851 2.24451 1.83687 2.2463 1.83496 2.25073C1.83252 2.25639 1.82848 2.26725 1.82324 2.28491C1.81225 2.32203 1.79809 2.38201 1.7832 2.4812C1.7517 2.69113 1.72352 3.00655 1.6875 3.5105L1.5459 5.66968C1.51987 6.10763 1.47554 6.71031 1.42773 7.33081L1.28711 9.10229C1.17926 10.441 1.12298 11.2241 0.966797 14.2429L0.771484 18.1101C0.730118 18.9487 0.685994 19.7526 0.648438 20.3718C0.630239 20.6719 0.61382 20.9386 0.598633 21.1462L0.55957 21.5671L0.558594 21.574L0.541016 21.7117C0.502823 22.088 0.490678 22.8326 0.507812 23.6375C0.522384 24.3218 0.55606 24.9934 0.601562 25.449L0.650391 25.825L0.651367 25.8259C1.03575 27.9946 1.98635 29.7226 4.00586 31.7234L4.4248 32.1267L4.42578 32.1287C4.90632 32.5858 5.24467 32.9233 5.4707 33.1833C5.65614 33.3967 5.81464 33.6095 5.8877 33.8357L5.91309 33.9333L5.91602 33.9451C5.95806 34.1767 5.97796 34.5556 5.98438 35.0945C5.99093 35.6453 5.98323 36.3978 5.95996 37.3972C5.93668 38.3972 5.89735 39.6495 5.8418 41.2019L5.62402 46.8083L5.36621 53.4929C5.20367 57.9354 5.11064 60.4296 5.02637 62.4275L4.94238 64.3142C4.87062 65.9397 4.85242 67.6106 4.88184 68.9822C4.89656 69.6683 4.92296 70.2763 4.95996 70.7634C4.98837 71.1374 5.02238 71.4215 5.05664 71.6121L5.09082 71.7712C5.25004 72.3606 5.44915 72.7897 5.70605 73.1248C5.96047 73.4565 6.29153 73.7221 6.75391 73.9558L6.75293 73.9568Z" fill="white" stroke="white"/>
<path d="M11.6589 65.8562C11.8134 65.8561 11.9086 65.8115 11.9802 65.7439C12.0413 65.6862 12.107 65.5898 12.1628 65.4353L12.2146 65.2605C12.241 65.1479 12.269 64.9057 12.2869 64.4949C12.3043 64.0939 12.3116 63.5634 12.3083 62.8962C12.3019 61.5622 12.2527 59.6989 12.1599 57.2664C12.09 55.5646 12.009 52.1265 11.9509 48.7019L11.9021 45.3464C11.8569 41.5933 11.7798 37.757 11.7136 36.1248L11.6863 35.5671L11.6853 35.5623L11.572 33.5623L11.5583 33.3201L11.74 33.1599L11.9978 32.9314L13.0027 32.0583C15.0783 30.2343 16.1437 28.196 16.614 25.0271V25.0261C16.7792 23.872 16.8252 20.4548 16.7175 18.1228L16.6619 17.2V17.198C16.5579 15.807 16.3924 12.4166 16.1345 6.14722C16.0618 4.45188 16.011 3.52807 15.9304 2.97632C15.8907 2.70421 15.8477 2.5548 15.8074 2.46265C15.7731 2.38453 15.734 2.3342 15.6677 2.26929C15.568 2.17493 15.4877 2.14058 15.4207 2.12964C15.3513 2.11833 15.2528 2.12506 15.1082 2.18335C15.1062 2.18467 15.1039 2.18635 15.1013 2.18823C15.0862 2.19909 15.0662 2.21493 15.0447 2.23511C15.0216 2.25672 15.0012 2.27921 14.9841 2.29956L14.9451 2.35327L14.9402 2.36011L14.9294 2.37964C14.9258 2.38899 14.9223 2.40347 14.9177 2.42944C14.9047 2.50409 14.893 2.63966 14.8923 2.90894C14.8917 3.1762 14.9016 3.54668 14.9207 4.07397L15.0076 6.18042C15.1004 8.28858 15.2245 11.0731 15.2761 12.3572C15.3018 12.9958 15.3454 13.8711 15.3943 14.7644L15.5437 17.28C15.815 21.3316 15.6848 24.6488 15.1482 26.6599L15.0349 27.0447C14.4206 28.9529 12.9057 30.9004 11.2761 31.8816L10.949 32.0652L10.9451 32.0662L10.6873 32.2009C10.6329 32.2318 10.6032 32.2529 10.5798 32.2761C10.5656 32.2902 10.5241 32.3304 10.4939 32.531C10.4612 32.7484 10.4514 33.0858 10.4666 33.6453C10.474 33.9217 10.4874 34.2438 10.5046 34.6218L10.5681 35.9333C10.6615 37.8348 10.785 43.0281 10.8367 47.4861C10.8986 51.941 10.9915 56.4707 11.0427 57.5769C11.0897 58.4179 11.1303 59.9113 11.1521 61.3083L11.1677 62.6462V62.6472L11.1765 65.4968L11.3464 65.6941L11.3503 65.699C11.4511 65.8195 11.4867 65.8375 11.4929 65.8406C11.4961 65.8422 11.5251 65.8562 11.6589 65.8562Z" fill="white" stroke="white"/>
<path d="M6.42285 25.5879C6.60466 25.6134 6.8351 25.5356 6.96777 25.2197C6.97011 25.1845 6.97393 25.1345 6.97656 25.0684C6.98243 24.9206 6.98762 24.707 6.99316 24.4307C7.00423 23.8788 7.01506 23.086 7.02344 22.0879C7.0402 20.0921 7.0498 17.2802 7.0498 13.9434C7.0498 7.93818 7.0548 5.04382 6.99219 3.5957C6.96015 2.85502 6.91135 2.55963 6.86523 2.42969C6.85649 2.40513 6.8503 2.39435 6.84863 2.3916C6.84776 2.39017 6.84808 2.39008 6.84766 2.38965L6.7334 2.30469C6.59568 2.20679 6.40842 2.18502 6.20508 2.33008L6.11719 2.40332L6.11426 2.40527L5.93262 2.57324L5.90332 13.4883C5.893 16.5476 5.89297 19.3786 5.89941 21.4756C5.90264 22.5242 5.90713 23.3894 5.91309 24.0068C5.91606 24.3156 5.91941 24.5615 5.92285 24.7373L5.92969 25.0039C5.98551 25.395 6.22526 25.56 6.42285 25.5879Z" fill="white" stroke="white"/>
<path d="M10.5623 25.5522C10.6679 25.5856 10.8159 25.5791 10.9773 25.4575L11.0466 25.3979L11.0505 25.394L11.2312 25.2271L11.2625 14.2026C11.2676 11.1159 11.2676 8.26867 11.2625 6.16748C11.2599 5.11663 11.2559 4.25245 11.2507 3.63916C11.2482 3.33254 11.2451 3.08939 11.2419 2.91748C11.2404 2.83161 11.2387 2.76528 11.2371 2.71826C11.2366 2.70429 11.2374 2.69315 11.2371 2.68506C11.2008 2.50018 11.1313 2.39238 11.0623 2.33154C10.9947 2.27215 10.8897 2.22314 10.7195 2.22314C10.5831 2.22315 10.5207 2.23785 10.491 2.24854C10.4733 2.25492 10.4549 2.26465 10.4236 2.29541C10.3517 2.39052 10.2603 2.54888 10.2126 2.65674C10.2125 2.65786 10.2127 2.65946 10.2126 2.66064C10.2089 2.70484 10.205 2.7704 10.2009 2.85889C10.1927 3.03552 10.1847 3.28644 10.1775 3.60303C10.163 4.23518 10.1511 5.11787 10.1414 6.16943C10.1219 8.27225 10.1117 11.0436 10.1111 13.8198C10.1104 16.5959 10.1196 19.376 10.1375 21.4966C10.1464 22.5571 10.1572 23.4514 10.1707 24.0972C10.1774 24.4201 10.1845 24.6787 10.1921 24.8638C10.196 24.9567 10.2002 25.0286 10.2039 25.0786C10.2054 25.1 10.207 25.1137 10.2078 25.1216C10.2866 25.3922 10.44 25.5136 10.5623 25.5522Z" fill="white" stroke="white"/>
</svg>
